<?xml version="1.0" encoding="UTF-8"?>
<svg version="1.1" xmlns="http://www.w3.org/2000/svg" width="422" height="466">
<path d="M0 0 C0.66 0.33 1.32 0.66 2 1 C1.4267247 1.57105469 0.8534494 2.14210938 0.26280212 2.73046875 C-5.16782464 8.14096877 -10.59597394 13.55393706 -16.02143192 18.96961975 C-18.81007064 21.75306379 -21.59962164 24.53557996 -24.39135742 27.31591797 C-27.09091003 30.00451934 -29.78793547 32.69563298 -32.48330498 35.38842773 C-33.50653897 36.40982935 -34.53064523 37.43035799 -35.55568123 38.44995117 C-40.75855982 43.62632602 -45.87759135 48.8292908 -50.64060974 54.41918945 C-52.33054245 56.38438189 -54.13599749 58.20027344 -56 60 C-59.17350953 63.13103426 -62.13007533 66.3745264 -65.03515625 69.75390625 C-66.93797461 71.92909622 -68.88626768 74.05664496 -70.8503418 76.17651367 C-76.62908863 82.41489918 -82.16171461 88.8275745 -87.61621094 95.35009766 C-89.47659967 97.56825345 -91.35211743 99.77338668 -93.22705078 101.97924805 C-98.5607618 108.25842129 -103.80008954 114.60941237 -109 121 C-110.52055301 122.85439656 -112.04138724 124.70856256 -113.5625 126.5625 C-116.37848172 130.00209013 -119.17006666 133.45875849 -121.9375 136.9375 C-124.8981509 140.65744308 -127.93343935 144.30444494 -131 147.9375 C-134.95512528 152.6569593 -138.61265667 157.51360381 -142.18359375 162.52734375 C-144.24144038 165.32867046 -146.46914348 167.91828911 -148.765625 170.5234375 C-150.44837752 172.53635032 -151.69393286 174.72857889 -153 177 C-157.16875653 183.19122257 -157.16875653 183.19122257 -159.4453125 185.40625 C-161.38534723 187.39502932 -162.82637667 189.56958337 -164.375 191.875 C-166.98826603 195.6666908 -169.74365355 198.74365355 -173 202 C-177.3229847 207.55812319 -181.26352113 213.36549013 -185.125 219.25 C-188.1356663 223.81322558 -191.33044036 227.95800744 -195 232 C-197.85162651 235.25900172 -199.49372145 238.11404169 -201.1015625 242.125 C-202.47459731 244.99046396 -204.39151339 247.35158864 -206.3359375 249.8515625 C-211.77468219 256.87341597 -216.47872671 264.31914925 -221.09375 271.8984375 C-224.66395435 277.70733556 -228.50445697 283.30755909 -232.4375 288.875 C-236.63617399 294.85354666 -240.51300526 301.01729323 -244.38183594 307.21289062 C-245.41179301 308.86161779 -246.44317457 310.50945576 -247.47583008 312.15649414 C-248.50747424 313.8021404 -249.53612572 315.44966786 -250.5612793 317.09936523 C-253.42175143 321.65991589 -256.42350049 326.00707996 -259.74975586 330.24169922 C-261.66287275 332.93224166 -262.72238117 335.96565527 -264 339 C-266.22422607 342.68700538 -268.62393832 346.25890838 -271.29492188 349.63842773 C-275.84733635 355.45783042 -279.34220589 361.71176352 -282.875 368.1875 C-287.22266951 376.06183459 -291.63579142 383.83208504 -296.4140625 391.453125 C-300.89923173 398.65590908 -304.72659645 406.24220833 -308.68310547 413.74291992 C-311.38891575 418.86728372 -314.1544978 423.95152835 -317 429 C-324.07518393 429.45646348 -329.98161592 429.03049358 -336 425 C-338.08187053 423.03315779 -339.89963858 420.92240593 -341.6875 418.6875 C-342.35736938 417.87019409 -342.35736938 417.87019409 -343.04077148 417.03637695 C-345.24537378 414.05767315 -345.9997362 412.23557557 -346.00390625 408.51171875 C-344.9080972 404.67851902 -343.32507354 401.49226983 -341.25 398.125 C-340.51516373 396.88959717 -339.78078757 395.65392054 -339.046875 394.41796875 C-338.37140625 393.29003906 -337.6959375 392.16210938 -337 391 C-336.15842405 389.4837123 -335.32368772 387.96357897 -334.5 386.4375 C-332.39359273 382.63882656 -330.18582442 378.90353804 -327.9375 375.1875 C-327.28652344 374.10855469 -326.63554687 373.02960938 -325.96484375 371.91796875 C-324.16072256 369.23868738 -322.30612584 367.23610178 -320 365 C-319.02257286 363.65308967 -318.08480837 362.27655947 -317.1875 360.875 C-314.42733162 356.62966487 -311.54678687 352.48651394 -308.61328125 348.359375 C-306.94137888 345.97770784 -306.94137888 345.97770784 -305.41796875 343.265625 C-304 341 -304 341 -302 340 C-301.05847441 338.35233022 -300.12078276 336.70229559 -299.20703125 335.0390625 C-297.099346 331.47850683 -294.52735968 328.26871852 -292 325 C-291.22849609 323.89205078 -291.22849609 323.89205078 -290.44140625 322.76171875 C-289.96574219 322.18035156 -289.49007812 321.59898437 -289 321 C-288.34 321 -287.68 321 -287 321 C-286.71511719 320.41605469 -286.43023437 319.83210938 -286.13671875 319.23046875 C-283.01814029 313.11119623 -279.07754168 307.71318963 -274.81640625 302.34765625 C-272.97769868 299.97117615 -271.26378194 297.53885343 -269.5625 295.0625 C-265.94822678 289.83918792 -261.99753497 284.93212566 -258 280 C-253.30835104 274.16902136 -253.30835104 274.16902136 -249.1875 267.9375 C-248.795625 267.298125 -248.40375 266.65875 -248 266 C-247.34 266 -246.68 266 -246 266 C-245.64615234 265.19755859 -245.64615234 265.19755859 -245.28515625 264.37890625 C-243.63522847 261.32478461 -241.56891896 258.66313273 -239.4375 255.9375 C-238.99277344 255.36386719 -238.54804688 254.79023438 -238.08984375 254.19921875 C-234.57080563 249.68045389 -230.94686519 245.25268572 -227.30078125 240.8359375 C-223.8679095 236.60458794 -220.566439 232.27710362 -217.26171875 227.9453125 C-216.51535156 226.97335938 -215.76898438 226.00140625 -215 225 C-213.92685547 223.57300781 -213.92685547 223.57300781 -212.83203125 222.1171875 C-212.22746094 221.41851562 -211.62289062 220.71984375 -211 220 C-210.34 220 -209.68 220 -209 220 C-208.64421875 219.20335937 -208.64421875 219.20335937 -208.28125 218.390625 C-206.62621616 215.30257405 -204.59451872 212.5471528 -202.5 209.75 C-202.09652344 209.19570312 -201.69304687 208.64140625 -201.27734375 208.0703125 C-200.23549829 206.67430835 -199.12254588 205.33197608 -198 204 C-197.34 204 -196.68 204 -196 204 C-195.814375 203.319375 -195.62875 202.63875 -195.4375 201.9375 C-193.74989409 198.48891401 -191.65354412 196.49573131 -188.91015625 193.859375 C-183.70647772 188.79403557 -179.26496097 183.09645549 -174.8125 177.375 C-166.83830788 167.15312288 -158.57257431 157.37785932 -149.28491211 148.32324219 C-146.15835229 145.24733356 -143.34211034 142.0653338 -140.625 138.625 C-136.44425201 133.35329039 -131.80787221 128.69599596 -127.01879883 123.98754883 C-123.42565603 120.44910659 -120.02756844 116.8401885 -116.76953125 112.98828125 C-113.63174895 109.46260534 -110.21920396 106.20228151 -106.84375 102.90625 C-104.78270028 100.85054753 -102.87667295 98.71064855 -100.98999023 96.49438477 C-96.33636018 91.15681913 -91.32726769 86.18269352 -86.31640625 81.18359375 C-85.29167892 80.15819076 -84.26709989 79.13263954 -83.24266052 78.10694885 C-81.1069957 75.96981937 -78.96955792 73.83448391 -76.83081055 71.70043945 C-74.10991584 68.98524125 -71.3935369 66.26557667 -68.67848301 63.54453945 C-66.56716186 61.42957925 -64.45343325 59.31703793 -62.33900261 57.20518684 C-61.33728909 56.20413337 -60.33629823 55.20235615 -59.336092 54.19979668 C-54.26757389 49.12196865 -49.17614585 44.13557522 -43.71763611 39.47608948 C-40.72901331 36.90774881 -37.87394523 34.19508584 -35 31.5 C-30.74446612 27.5279434 -26.46292724 23.60750376 -22.0546875 19.8046875 C-19.33075339 17.41218263 -16.66655647 14.95595209 -14 12.5 C-9.39573234 8.25998944 -4.741572 4.0861194 0 0 Z " fill="#8A838F" transform="translate(385,26)"/>
<path d="M0 0 C1.23607246 0.03233482 1.23607246 0.03233482 2.49711609 0.06532288 C3.78980659 0.06738487 3.78980659 0.06738487 5.10861206 0.06948853 C6.92842526 0.07853178 8.74821686 0.10211975 10.56767273 0.13929749 C13.33341586 0.19385102 16.09612682 0.20082767 18.86235046 0.2000885 C20.63646471 0.21484582 22.41055875 0.23233594 24.18461609 0.25282288 C25.00259171 0.25616135 25.82056732 0.25949982 26.66333008 0.26293945 C32.22819025 0.39877758 36.46002131 1.43762259 41.54008484 3.75672913 C44.5070323 6.87582774 46.40614836 9.2499437 46.79008484 13.56922913 C46.5054455 17.19838069 45.76222578 18.89969077 43.54008484 21.75672913 C42.22880563 22.46579122 40.89717906 23.13986812 39.54008484 23.75672913 C40.03379578 24.12024475 40.52750671 24.48376038 41.03617859 24.85829163 C46.24741941 28.94759529 46.24741941 28.94759529 47.60258484 32.69422913 C47.50556836 37.44803678 46.68127842 41.19287125 43.85258484 45.06922913 C37.68969193 49.5664753 30.43503868 49.02477299 23.13774109 48.95204163 C22.06003952 48.94921173 20.98233795 48.94638184 19.87197876 48.94346619 C16.44873185 48.93232106 13.02575193 48.90722668 9.60258484 48.88172913 C7.27381259 48.87169201 4.94503622 48.86256744 2.61625671 48.85438538 C-3.07589081 48.83240028 -8.7678839 48.79897925 -14.45991516 48.75672913 C-13.52549981 47.48362601 -12.58724405 46.21334113 -11.64741516 44.94422913 C-11.12534485 44.23653381 -10.60327454 43.5288385 -10.06538391 42.79969788 C-7.27289569 39.24623962 -7.27289569 39.24623962 -5.45991516 37.75672913 C-2.52593834 37.42541031 0.20717965 37.26802806 3.14555359 37.24501038 C3.98475845 37.22705917 4.82396332 37.20910797 5.68859863 37.19061279 C8.36820963 37.13644349 11.04764186 37.1025934 13.72758484 37.06922913 C15.54466704 37.03606183 17.36172564 37.00157272 19.17875671 36.9657135 C23.63240388 36.8807134 28.08599743 36.81393411 32.54008484 36.75672913 C32.54008484 34.77672913 32.54008484 32.79672913 32.54008484 30.75672913 C30.21156532 29.59246937 28.777283 29.6021492 26.18217468 29.55140686 C25.28139191 29.53146164 24.38060913 29.51151642 23.45252991 29.4909668 C22.47853241 29.4742543 21.50453491 29.45754181 20.50102234 29.44032288 C19.50503021 29.41954178 18.50903809 29.39876068 17.48286438 29.37734985 C14.2936763 29.31183871 11.10440426 29.25296208 7.91508484 29.19422913 C5.75622191 29.1510454 3.59736754 29.10743116 1.43852234 29.06336975 C-3.86086746 28.95615576 -9.16034122 28.85439228 -14.45991516 28.75672913 C-13.48125178 27.6104659 -12.50196929 26.46473124 -11.52241516 25.31922913 C-10.97714172 24.68114319 -10.43186829 24.04305725 -9.87007141 23.38563538 C-9.09195822 22.48681764 -8.30054988 21.59736385 -7.45991516 20.75672913 C-4.58904844 20.60884061 -1.73919593 20.52164819 1.13383484 20.47547913 C2.42662354 20.44786499 2.42662354 20.44786499 3.74552917 20.41969299 C7.44921522 20.34073422 11.1530911 20.27318056 14.85697937 20.20448303 C17.5535261 20.15287222 20.24991041 20.0955751 22.94633484 20.03797913 C24.21350342 20.01761597 24.21350342 20.01761597 25.50627136 19.99684143 C29.33453631 20.28299556 29.33453631 20.28299556 32.54008484 18.75672913 C32.70675151 16.25672913 32.70675151 16.25672913 32.54008484 13.75672913 C30.96934952 12.18599381 29.38646266 12.59303606 27.2039032 12.55140686 C26.28302414 12.53146164 25.36214508 12.51151642 24.4133606 12.4909668 C23.41232803 12.4742543 22.41129547 12.45754181 21.37992859 12.44032288 C20.36032547 12.41954178 19.34072235 12.39876068 18.29022217 12.37734985 C15.01941436 12.31174061 11.74852347 12.25291678 8.47758484 12.19422913 C6.26598756 12.15105471 4.05439881 12.10744079 1.84281921 12.06336975 C-3.59133667 11.95604773 -9.02557598 11.85430289 -14.45991516 11.75672913 C-7.94286586 0.09464091 -7.94286586 0.09464091 0 0 Z " fill="#EAEAEE" transform="translate(100.45991516113281,55.24327087402344)"/>
<path d="M0 0 C17.82 0 35.64 0 54 0 C52.68 2.31 51.36 4.62 50 7 C49.3661438 8.19447754 49.3661438 8.19447754 48.71948242 9.41308594 C45.99922039 11.92362168 42.99031095 11.49298192 39.48828125 11.390625 C38.76005661 11.38496521 38.03183197 11.37930542 37.28153992 11.37347412 C34.95785502 11.35110029 32.63571793 11.30090669 30.3125 11.25 C28.73635041 11.22993609 27.16017663 11.21168512 25.58398438 11.1953125 C21.72206076 11.15123283 17.8612927 11.08220225 14 11 C14 13.97 14 16.94 14 20 C27.2 20 40.4 20 54 20 C48 27 48 27 47 28 C44.55169574 28.08843793 42.13179401 28.11528752 39.68359375 28.09765625 C38.95253922 28.0962413 38.22148468 28.09482635 37.46827698 28.09336853 C35.12464368 28.08775408 32.78110461 28.07519922 30.4375 28.0625 C28.85221492 28.05748686 27.26692834 28.05292363 25.68164062 28.04882812 C21.7877239 28.03777997 17.89387795 28.02050572 14 28 C14 30.97 14 33.94 14 37 C27.2 37 40.4 37 54 37 C53.34 38.32 52.68 39.64 52 41 C51.69955276 41.62628799 51.39910553 42.25257599 51.08955383 42.89784241 C49.38073988 45.86674172 48.13416223 47.69432223 44.73641968 48.6100769 C41.87707218 48.81165719 39.09492277 48.78729125 36.23046875 48.68359375 C35.3115686 48.67654419 34.39266846 48.66949463 33.44592285 48.66223145 C30.02582312 48.6257109 26.60659776 48.52797895 23.1875 48.4375 C11.7096875 48.2209375 11.7096875 48.2209375 0 48 C0 32.16 0 16.32 0 0 Z " fill="#E9E9ED" transform="translate(156,56)"/>
<path d="M0 0 C1.11393883 0.00607269 1.11393883 0.00607269 2.25038147 0.01226807 C3.02052078 0.01035461 3.7906601 0.00844116 4.58413696 0.00646973 C6.22085393 0.00510648 7.85758166 0.00881266 9.49427795 0.01715088 C11.96336747 0.02771794 14.4317073 0.01732946 16.90077209 0.00445557 C37.69936296 -0.01872892 37.69936296 -0.01872892 44.35585022 3.93414307 C44.96170959 4.54258057 45.56756897 5.15101807 46.19178772 5.77789307 C46.82342834 6.38633057 47.45506897 6.99476807 48.10585022 7.62164307 C51.41758203 11.37611977 51.01739761 15.40531658 50.97694397 20.21929932 C50.43889707 24.23159193 49.15342832 26.21721619 46.30116272 29.00836182 C43.87278219 30.78589261 41.49330662 31.65078187 38.56678772 32.27789307 C42.26788038 36.70115015 46.05575159 40.83347144 50.24647522 44.79742432 C51.56678772 46.27789307 51.56678772 46.27789307 51.56678772 48.27789307 C39.84670496 49.74630251 39.84670496 49.74630251 34.56678772 48.27789307 C32.12538147 45.64117432 32.12538147 45.64117432 30.12928772 42.34039307 C27.50683429 38.39046763 26.28084898 36.66506725 21.61610413 35.61138916 C13.93724851 34.82244322 6.2704751 34.9846341 -1.43321228 35.27789307 C-1.43321228 39.56789307 -1.43321228 43.85789307 -1.43321228 48.27789307 C-5.72321228 48.27789307 -10.01321228 48.27789307 -14.43321228 48.27789307 C-14.43321228 40.68789307 -14.43321228 33.09789307 -14.43321228 25.27789307 C-11.24278259 25.24051025 -8.05235291 25.20312744 -4.76524353 25.16461182 C-1.67069189 25.11838277 1.42373945 25.06715404 4.51820374 25.01544189 C6.6665667 24.98221561 8.81501647 24.95417654 10.96351624 24.93145752 C14.05430548 24.89786975 17.14430084 24.84555086 20.23475647 24.78961182 C21.67252693 24.78002693 21.67252693 24.78002693 23.13934326 24.77024841 C28.03349098 24.6626754 31.65724591 24.57618072 35.56678772 21.27789307 C36.8108005 18.89180696 36.8108005 18.89180696 36.56678772 16.27789307 C35.26762264 13.94164659 35.26762264 13.94164659 32.56678772 12.27789307 C29.09031535 11.65111807 25.63906746 11.67291302 22.11366272 11.66851807 C21.09830444 11.65198181 20.08294617 11.63544556 19.03681946 11.6184082 C15.79674777 11.56985917 12.55714567 11.54854146 9.31678772 11.52789307 C7.11884734 11.49973924 4.9209289 11.46981264 2.72303772 11.43804932 C-2.6622935 11.36409864 -8.04749228 11.31249657 -13.43321228 11.27789307 C-12.47775862 9.81767144 -11.5187455 8.35977838 -10.55821228 6.90289307 C-10.02454041 6.09078369 -9.49086853 5.27867432 -8.94102478 4.44195557 C-6.1862478 0.4882083 -4.78307547 0.04401463 0 0 Z " fill="#EBEBEF" transform="translate(234.43321228027344,55.72210693359375)"/>
<path d="M0 0 C4.29 0 8.58 0 13 0 C13.01401855 1.4226416 13.01401855 1.4226416 13.02832031 2.87402344 C13.07239231 6.40064758 13.13402783 9.92606203 13.20751953 13.45214844 C13.23570535 14.97677431 13.25693189 16.50154566 13.27099609 18.02636719 C13.29246049 20.22145936 13.33912169 22.41480711 13.390625 24.609375 C13.41157227 25.92905273 13.43251953 27.24873047 13.45410156 28.60839844 C14.08006252 32.49741881 14.88140779 33.67770439 18 36 C22.56280301 37.52093434 27.09544568 37.22539483 31.875 37.25 C33.36580078 37.2809375 33.36580078 37.2809375 34.88671875 37.3125 C41.9879115 37.45213228 41.9879115 37.45213228 48 34 C49.16402727 30.50791819 49.21118508 27.60852228 49.31640625 23.92578125 C49.33718735 23.2419487 49.35796844 22.55811615 49.37937927 21.8535614 C49.44466154 19.6733079 49.50366017 17.49293595 49.5625 15.3125 C49.60570553 13.83267014 49.64932047 12.35285217 49.69335938 10.87304688 C49.80032083 7.24882378 49.90164823 3.62446811 50 0 C54.29 0 58.58 0 63 0 C63.09958121 4.55315922 63.17179985 9.10567152 63.21972656 13.65966797 C63.23972503 15.20567887 63.26693331 16.75161527 63.30175781 18.29736328 C63.65499084 34.39024433 63.65499084 34.39024433 59 41 C50.56520723 48.65494523 39.91952854 49.23267013 29 49 C19.8185685 48.36518628 9.56651229 47.07518578 3 40 C0.13705372 35.28660746 -0.41027343 31.3762401 -0.29296875 25.9765625 C-0.28872391 25.23038666 -0.28447906 24.48421082 -0.28010559 23.71542358 C-0.26342382 21.35156902 -0.22579339 18.98859324 -0.1875 16.625 C-0.17243949 15.0143353 -0.15875348 13.40365713 -0.14648438 11.79296875 C-0.11355504 7.86164485 -0.06184762 3.93097099 0 0 Z " fill="#EFEFF2" transform="translate(14,56)"/>
<path d="M0 0 C15.8764557 -1.22126582 15.8764557 -1.22126582 20.73046875 1.5703125 C22.67570677 3.61261828 24.32341191 5.73477929 26 8 C27.30087953 9.20274742 28.63300102 10.37296731 30 11.5 C30.99 12.325 31.98 13.15 33 14 C32.0919838 15.13199353 31.17316174 16.25532363 30.25 17.375 C29.73953125 18.00148438 29.2290625 18.62796875 28.703125 19.2734375 C26.91800519 21.08312318 25.32050356 22.00117455 23 23 C17.10217978 17.84772816 11.42061096 12.52727584 5.875 7 C5.29468018 6.42419189 4.71436035 5.84838379 4.11645508 5.25512695 C0 1.12382219 0 1.12382219 0 0 Z " fill="#E2E2E7" transform="translate(297,56)"/>
<path d="M0 0 C2.46329629 0.90289996 3.25064308 1.81743364 4.828125 3.88671875 C7.61846103 7.33071033 10.67491103 10.1199161 14.04296875 12.98828125 C17.20742394 15.74579115 20.26217169 18.6465704 23.078125 21.76171875 C23.078125 22.09171875 23.078125 22.42171875 23.078125 22.76171875 C8.46175102 24.84977218 8.46175102 24.84977218 2.8515625 21.38769531 C-1.61282671 17.65692062 -5.3145136 13.30861801 -8.921875 8.76171875 C-2.88362558 -0.35752268 -2.88362558 -0.35752268 0 0 Z " fill="#E9E9ED" transform="translate(340.921875,81.23828125)"/>
<path d="M0 0 C0.66 0.33 1.32 0.66 2 1 C-5.92 8.92 -13.84 16.84 -22 25 C-22.66 24.67 -23.32 24.34 -24 24 C-23.25556641 23.27296875 -23.25556641 23.27296875 -22.49609375 22.53125 C-19.04377667 19.12478912 -15.69431211 15.70524249 -12.5625 12 C-8.75876532 7.56230954 -4.44057464 3.78606818 0 0 Z " fill="#C2C2CA" transform="translate(385,26)"/>
<path d="M0 0 C0.66 0.33 1.32 0.66 2 1 C0.02 2.98 -1.96 4.96 -4 7 C-4.66 6.67 -5.32 6.34 -6 6 C-4.02 4.02 -2.04 2.04 0 0 Z " fill="#A1A1AC" transform="translate(393,19)"/>
<path d="M0 0 C0.66 0.33 1.32 0.66 2 1 C0.02 1.99 0.02 1.99 -2 3 C-1.34 2.01 -0.68 1.02 0 0 Z " fill="#747583" transform="translate(400,13)"/>
<path d="M0 0 C2 1 2 1 2 1 Z " fill="#9795A2" transform="translate(407,7)"/>
<path d="M0 0 C2 1 2 1 2 1 Z " fill="#757484" transform="translate(410,5)"/>
<path d="" fill="#B0B0BA" transform="translate(0,0)"/>
<path d="" fill="#BEBEC6" transform="translate(0,0)"/>
<path d="" fill="#A3A3AE" transform="translate(0,0)"/>
<path d="" fill="#6E6F7E" transform="translate(0,0)"/>
<path d="" fill="#7C7C8A" transform="translate(0,0)"/>
<path d="" fill="#9795A2" transform="translate(0,0)"/>
<path d="" fill="#6E6F7E" transform="translate(0,0)"/>
<path d="" fill="#616271" transform="translate(0,0)"/>
<path d="" fill="#626272" transform="translate(0,0)"/>
</svg>
